#!OML:ASF H:\Punching\Project 1\Capture day 1\Session 1\female.ASF
:FULLY-SPECIFIED
:DEGREES
627
root -0.786156 15.7606 -9.37004 -166.212 186.151 -180.437
lowerback -4.00509 -0.0246815 1.88091
upperback -6.19377 -0.0868899 -0.679822
thorax -4.15308 -0.14744 -1.75518
lowerneck -14.9162 5.83353 10.6107
upperneck 34.3534 7.64854 -6.194
head 15.1835 3.81207 -3.10858
rclavicle 7.09257e-015 1.47101e-014
rhumerus -37.0154 -7.55376 -73.2329
rradius 18.9379
rwrist 24.0687
rhand -11.5201 -5.94852
rfingers 7.12502
rthumb 14.5194 -35.4205
lclavicle 7.09257e-015 1.47101e-014
lhumerus -35.5466 -14.308 89.8108
lradius 63.6369
lwrist -13.499
lhand -5.31836 9.26907
lfingers 7.12502
lthumb 20.4875 38.2081
rfemur -23.4811 6.36758 21.8619
rtibia 27.773
rfoot -19.6209 -19.4411
rtoes -3.86424
lfemur -24.3176 -7.7583 -20.7854
ltibia 30.3263
lfoot -19.9192 16.7049
ltoes 2.42306
628
root -0.78473 15.7572 -9.36692 -166.231 186.582 -180.54
lowerback -4.18311 0.00123724 1.98334
upperback -6.21472 -0.054787 -0.585962
thorax -4.07373 -0.13316 -1.7155
lowerneck -14.7649 5.93665 10.7773
upperneck 34.4512 7.81664 -6.3143
head 15.2322 3.89242 -3.1632
rclavicle 1.03368e-014 6.16232e-015
rhumerus -36.8845 -7.79502 -72.9874
rradius 18.7263
rwrist 24.7508
rhand -11.4178 -5.97337
rfingers 7.12502
rthumb 14.6179 -35.4382
lclavicle 1.03368e-014 6.16232e-015
lhumerus -36.2099 -14.1895 90.2716
lradius 63.8496
lwrist -13.1876
lhand -5.21248 9.2687
lfingers 7.12502
lthumb 20.5892 38.1968
rfemur -23.4754 6.36664 21.9491
rtibia 27.7587
rfoot -19.7519 -19.1765
rtoes -4.25143
lfemur -23.8097 -7.7169 -20.9099
ltibia 29.5408
lfoot -19.6652 17.8657
ltoes 4.58942
629
root -0.7836 15.7541 -9.36273 -166.258 186.981 -180.64
lowerback -4.35539 0.010596 2.07307
upperback -6.24115 -0.0449342 -0.487251
thorax -4.0044 -0.129498 -1.66374
lowerneck -14.5904 6.03969 10.9473
upperneck 34.5621 7.98499 -6.42736
head 15.2826 3.97497 -3.21626
rclavicle 4.21641e-015 -3.08116e-015
rhumerus -36.7485 -7.99418 -72.7903
rradius 18.5565
rwrist 25.3446
rhand -11.3294 -6.00605
rfingers 7.12502
rthumb 14.7032 -35.4647
lclavicle 4.21641e-015 -3.08116e-015
lhumerus -36.8799 -14.0058 90.7014
lradius 63.96
lwrist -12.9106
lhand -5.11447 9.28076
lfingers 7.12502
lthumb 20.6834 38.1986
rfemur -23.441 6.34894 22.0402
rtibia 27.7273
rfoot -19.8815 -18.9463
rtoes -4.59797
lfemur -23.3355 -7.75708 -20.9803
ltibia 28.7694
lfoot -19.3277 18.9924
ltoes 6.57143
630
root -0.782848 15.7508 -9.35785 -166.295 187.345 -180.739
lowerback -4.52075 0.00311661 2.15022
upperback -6.26675 -0.0576095 -0.384788
thorax -3.93909 -0.136509 -1.60125
lowerneck -14.4151 6.1452 11.1288
upperneck 34.6895 8.15523 -6.53984
head 15.3427 4.06017 -3.27137
rclavicle 9.05557e-015 2.27608e-014
rhumerus -36.6125 -8.13477 -72.6529
rradius 18.4507
rwrist 25.8145
rhand -11.2664 -6.04013
rfingers 7.12502
rthumb 14.7639 -35.4943
lclavicle 9.05557e-015 2.27608e-014
lhumerus -37.538 -13.7549 91.0926
lradius 63.9594
lwrist -12.6876
lhand -5.01817 9.28009
lfingers 7.12502
lthumb 20.776 38.1879
rfemur -23.3774 6.3133 22.1361
rtibia 27.6814
rfoot -20.0166 -18.749
rtoes -4.90351
lfemur -22.8933 -7.85686 -20.9985
ltibia 28.055
lfoot -18.9523 19.9742
ltoes 8.23959
631
root -0.782453 15.7477 -9.35252 -166.342 187.668 -180.832
lowerback -4.67614 -0.0189304 2.21209
upperback -6.29104 -0.0896249 -0.281776
thorax -3.87884 -0.152572 -1.52995
lowerneck -14.2432 6.25246 11.3124
upperneck 34.8287 8.32418 -6.63981
head 15.4096 4.1469 -3.32212
rclavicle 2.30916e-014 -8.64713e-015
rhumerus -36.4727 -8.23708 -72.5715
rradius 18.3974
rwrist 26.1508
rhand -11.2505 -6.07182
rfingers 7.12502
rthumb 14.7792 -35.5249
lclavicle 2.30916e-014 -8.64713e-015
lhumerus -38.1741 -13.4386 91.4397
lradius 63.8398
lwrist -12.5315
lhand -4.91239 9.26819
lfingers 7.12502
lthumb 20.8776 38.1648
rfemur -23.2856 6.25613 22.2328
rtibia 27.6193
rfoot -20.1604 -18.5736
rtoes -5.18739
lfemur -22.4819 -7.97732 -20.9765
ltibia 27.4354
lfoot -18.608 20.7267
ltoes 9.51668
632
root -0.782515 15.745 -9.34737 -166.4 187.952 -180.918
lowerback -4.80649 -0.0576145 2.25489
upperback -6.32277 -0.143039 -0.17624
thorax -3.84121 -0.17881 -1.44573
lowerneck -14.0679 6.36248 11.4941
upperneck 34.9854 8.49551 -6.72639
head 15.485 4.23652 -3.36703
rclavicle -3.10601e-018 -8.59744e-015
rhumerus -36.3504 -8.26227 -72.5563
rradius 18.4093
rwrist 26.3091
rhand -11.2897 -6.08671
rfingers 7.12502
rthumb 14.7414 -35.5425
lclavicle -3.10601e-018 -8.59744e-015
lhumerus -38.7985 -13.0432 91.7405
lradius 63.5978
lwrist -12.4502
lhand -4.78947 9.23316
lfingers 7.12502
lthumb 20.9957 38.1167
rfemur -23.1667 6.19304 22.3258
rtibia 27.5381
rfoot -20.315 -18.4215
rtoes -5.45518
lfemur -22.1041 -8.07869 -20.9265
ltibia 26.9364
lfoot -18.3769 21.2256
ltoes 10.3851
633
root -0.783055 15.7433 -9.34261 -166.476 188.194 -180.991
lowerback -4.911 -0.11103 2.27501
upperback -6.35496 -0.215175 -0.0723085
thorax -3.81906 -0.213664 -1.35084
lowerneck -13.8932 6.47125 11.6733
upperneck 35.1502 8.66257 -6.8006
head 15.5642 4.32582 -3.40733
rclavicle 1.05138e-015 1.04362e-015
rhumerus -36.2368 -8.25369 -72.5918
rradius 18.4733
rwrist 26.3102
rhand -11.3851 -6.07655
rfingers 7.12502
rthumb 14.6495 -35.5391
lclavicle 1.05138e-015 1.04362e-015
lhumerus -39.3952 -12.5683 91.9866
lradius 63.2305
lwrist -12.4391
lhand -4.64056 9.18221
lfingers 7.12502
lthumb 21.1387 38.0498
rfemur -23.0158 6.12939 22.4086
rtibia 27.4385
rfoot -20.481 -18.3011
rtoes -5.71721
lfemur -21.7539 -8.12881 -20.8672
ltibia 26.5594
lfoot -18.2911 21.489
ltoes 10.8776
